<svg aria-hidden="true" style="position: absolute; width: 0; height: 0; overflow: hidden;" version="1.1" xmlns="http://www.w3.org/2000/svg" xmlns:xlink="http://www.w3.org/1999/xlink">
<defs>
<symbol id="icon-plus" viewBox="0 0 32 32">
<path fill="#007a5c" style="fill: var(--color1, #007a5c)" d="M16 0c8.836 0 16 7.164 16 16s-7.164 16-16 16c-8.836 0-16-7.164-16-16s7.164-16 16-16zM16 3.556c-6.873 0-12.444 5.572-12.444 12.444s5.572 12.444 12.444 12.444c6.873 0 12.444-5.572 12.444-12.444s-5.572-12.444-12.444-12.444zM16 7.111c0.912 0 1.664 0.686 1.765 1.569l0.012 0.208v5.333h5.333c0.981 0 1.778 0.796 1.778 1.778 0 0.912-0.686 1.664-1.57 1.766l-0.208 0.012h-5.333v5.333c0 0.981-0.796 1.778-1.778 1.778-0.912 0-1.664-0.686-1.765-1.569l-0.012-0.208v-5.333h-5.333c-0.981 0-1.778-0.796-1.778-1.778 0-0.912 0.686-1.664 1.57-1.766l0.208-0.012h5.333v-5.333c0-0.981 0.796-1.778 1.778-1.778z"></path>
</symbol>
<symbol id="icon-play" viewBox="0 0 28 32">
<path fill="#f0faf8" style="fill: var(--color2, #f0faf8)" d="M1.154 3.789c-0.365 0.629-0.557 1.339-0.557 2.064v21.541c0 2.263 1.833 4.096 4.096 4.096 0.725 0 1.438-0.192 2.064-0.557l18.463-10.773c1.954-1.139 2.613-3.645 1.475-5.601-0.356-0.61-0.864-1.118-1.475-1.475l-18.463-10.77c-1.862-1.085-4.225-0.539-5.431 1.204l-0.172 0.27zM4.693 27.397v-21.543l18.463 10.77-18.463 10.773z"></path>
</symbol>
<symbol id="icon-check-mark" viewBox="0 0 32 32">
<path d="M16 0c2.656 0 5.224 0.65 7.516 1.874 0.866 0.462 1.194 1.54 0.732 2.406-0.464 0.866-1.54 1.192-2.406 0.73-1.78-0.95-3.774-1.454-5.842-1.454-6.872 0-12.444 5.572-12.444 12.444s5.572 12.444 12.444 12.444c6.872 0 12.444-5.572 12.444-12.444 0-0.98 0.796-1.778 1.78-1.778 0.98 0 1.776 0.796 1.776 1.778 0 8.836-7.164 16-16 16s-16-7.164-16-16c0-8.836 7.164-16 16-16zM31.404 4.004c0.676 0.602 0.786 1.606 0.284 2.334l-0.138 0.176-14.22 16c-0.632 0.71-1.698 0.792-2.426 0.22l-0.16-0.144-5.334-5.332c-0.694-0.696-0.694-1.82 0-2.516 0.64-0.64 1.648-0.69 2.346-0.146l0.168 0.146 4 4 12.97-14.59c0.652-0.734 1.776-0.8 2.51-0.148z"></path>
</symbol>
<symbol id="icon-athand" viewBox="0 0 32 32">
<path d="M26.666 0h-21.332c-2.945 0-5.334 2.388-5.334 5.334v16l0.009 0.313c0.163 2.799 2.486 5.020 5.324 5.020h4.596l4.815 4.813 0.167 0.148c0.698 0.543 1.706 0.493 2.346-0.148l4.813-4.813h4.596c2.945 0 5.334-2.388 5.334-5.332v-16c0-2.945-2.388-5.334-5.334-5.334zM5.334 3.555h21.332c0.982 0 1.779 0.797 1.779 1.779v16c0 0.98-0.797 1.777-1.779 1.777h-5.332l-0.234 0.015c-0.385 0.052-0.746 0.228-1.024 0.506l-4.076 4.074-4.076-4.074c-0.335-0.335-0.785-0.521-1.258-0.521h-5.332c-0.982 0-1.779-0.797-1.779-1.777v-16c0-0.982 0.797-1.779 1.779-1.779z"></path>
</symbol>
<symbol id="icon-cheaper" viewBox="0 0 37 32">
<path d="M30.001 0c3.194 0 5.806 2.499 5.989 5.647l0.011 0.354v19.998c0 3.195-2.499 5.809-5.647 5.99l-0.354 0.011h-23.998c-3.194 0-5.806-2.499-5.989-5.647l-0.012-0.354v-19.998c0-3.194 2.499-5.806 5.647-5.989l0.354-0.012h24zM30.001 4h-24c-1.026 0-1.871 0.773-1.987 1.768l-0.014 0.232v20.002c0 1.024 0.773 1.87 1.768 1.986l0.232 0.014h24c1.026 0 1.871-0.773 1.987-1.768l0.014-0.232v-2.001h-10.804c-3.848 0-6.988-3.017-7.186-6.814l-0.011-0.381v-1.609c0-3.846 3.017-6.987 6.814-7.185l0.381-0.011h10.805v-2.001c0-1.024-0.773-1.87-1.768-1.986l-0.232-0.014zM31.997 12h-10.801c-1.57 0-2.874 1.131-3.144 2.621l-0.038 0.283-0.014 0.291v1.609c0 1.667 1.277 3.035 2.906 3.182l0.29 0.014h10.804v-8h-0.003zM22.001 14.001c1.105 0 1.999 0.894 1.999 1.999 0 1.103-0.894 2.001-2.001 2.001-1.105 0-1.999-0.896-1.999-2.001s0.894-2.001 2.001-2.001v0.002z"></path>
</symbol>
<symbol id="icon-fast" viewBox="0 0 25 32">
<path d="M21.373 0h-12.466c-0.675 0-1.291 0.365-1.593 0.944l-7.123 13.653-0.082 0.18c-0.417 1.091 0.42 2.289 1.675 2.289h4.551l-4.438 11.347c-0.657 1.677 1.483 3.067 2.866 1.863l19.729-17.203c0.999-1.069 0.223-2.833-1.337-2.833h-4.243l4.056-7.771c0.591-1.133-0.27-2.469-1.593-2.469zM18.489 3.413l-4.051 7.771-0.082 0.18c-0.417 1.091 0.42 2.289 1.675 2.289h2.515l-10.727 9.347 2.755-7.040 0.061-0.187c0.278-1.059-0.554-2.12-1.728-2.12h-4.243l5.343-10.24h8.483z"></path>
</symbol>
<symbol id="icon-logo" viewBox="0 0 72 32">
<path d="M23.813 1.695c-0.966-0.134-3.583-0.147-3.631-0.147-2.803-0.074-4.399 0.318-4.666 0.966-0.367 0.89-0.219 2.095-0.056 3.009 0.192 1.082 0.614 2.196 1.732 2.609 0.343 0.128 0.709 0.168 1.075 0.197 0.908 0.073 1.823 0.079 2.733-0.001 0.419-0.037 0.841-0.092 1.243-0.22 1.722-0.544 2.445-2.152 2.756-3.795 0.232-1.229-0.221-2.481-1.187-2.618h0.001zM29.914 4.314c0.312 1.642 1.035 3.251 2.756 3.795 0.402 0.127 0.824 0.182 1.244 0.218 0.909 0.081 1.825 0.075 2.734 0.002 0.364-0.029 0.73-0.069 1.073-0.197 1.119-0.412 1.542-1.528 1.734-2.609 0.162-0.913 0.31-2.12-0.056-3.008-0.269-0.649-1.862-1.041-4.667-0.966-0.047 0-2.665 0.010-3.63 0.146-0.966 0.138-1.42 1.389-1.187 2.619zM26.739 3.484c-0.117 0.209-0.203 0.453-0.242 0.713l-0.002 0.012c-0.267 1.629-0.772 3.375-2.182 4.391-0.902 0.65-2.049 0.882-3.145 0.995-1.389 0.141-2.794 0.058-4.154-0.252-0.497-0.113-0.99-0.265-1.405-0.554-0.509-0.352-0.866-0.888-1.101-1.459-0.101-0.241-0.788-3.1-0.71-3.1h-0.19c-0.001 0-0.001 0-0.002 0-0.201 0-0.366-0.154-0.383-0.351l-0-0.001c-0.049-0.662-0.133-2.050 0.013-2.473 0.195-0.562 1.447-1.080 4.318-1.294 2.873-0.216 6.629-0.108 7.47 0.258 0.84 0.365 4.024 0.365 4.863 0 0.84-0.366 4.598-0.474 7.469-0.258 2.872 0.214 4.124 0.732 4.318 1.293 0.147 0.424 0.063 1.812 0.013 2.474-0.016 0.198-0.181 0.352-0.382 0.352-0 0-0.001 0-0.001 0h-0.192c0.081 0-0.609 2.858-0.707 3.101-0.237 0.571-0.594 1.107-1.103 1.459-0.415 0.289-0.909 0.44-1.404 0.554-0.854 0.202-1.835 0.318-2.843 0.318-0.462 0-0.917-0.024-1.367-0.072l0.056 0.005c-1.096-0.113-2.244-0.343-3.146-0.994-1.41-1.016-1.914-2.762-2.18-4.391-0.040-0.271-0.126-0.515-0.251-0.735l0.005 0.011c-0.315-0.541-1.121-0.541-1.436 0zM42.826 18.173c0-0.852-0.271-1.571-0.814-2.158s-1.247-0.882-2.112-0.882c-0.866 0-1.573 0.294-2.122 0.882s-0.824 1.306-0.824 2.158c0 0.867 0.275 1.591 0.824 2.179s1.256 0.881 2.122 0.881c0.866 0 1.57-0.294 2.113-0.881s0.814-1.311 0.814-2.178zM42.691 8.745h2.733v14.714h-2.675v-1.297c-0.852 1.032-1.944 1.549-3.275 1.549-1.498 0-2.746-0.526-3.74-1.578-0.995-1.052-1.492-2.372-1.492-3.96 0-1.574 0.5-2.892 1.502-3.949 1.001-1.059 2.244-1.588 3.73-1.588 1.279 0 2.351 0.497 3.217 1.491v-5.382zM47.942 23.459h2.732v-10.552h-2.733v10.552zM49.318 8.376c-0.479 0-0.879 0.159-1.203 0.475s-0.484 0.713-0.484 1.19 0.162 0.877 0.484 1.201c0.323 0.323 0.724 0.484 1.202 0.484s0.879-0.161 1.201-0.484 0.484-0.723 0.484-1.201-0.161-0.875-0.484-1.19c-0.323-0.316-0.723-0.475-1.201-0.475zM68.696 12.908l-2.401 6.872-2.733-6.873h-3.159l4.614 10.435-0.216 0.484c-0.516 1.11-1.2 1.665-2.054 1.665-0.413 0-0.866-0.116-1.355-0.348l-0.467 2.284c0.556 0.349 1.234 0.522 2.035 0.522 1.048 0 1.926-0.325 2.636-0.977s1.324-1.649 1.843-2.991l4.242-11.075h-2.984zM56.779 12.539c0-0.592 0.167-1.049 0.504-1.364 0.335-0.316 0.82-0.475 1.453-0.475 0.478 0 1.046 0.148 1.707 0.445l0.89-2.091c-0.969-0.516-1.97-0.774-3.003-0.774-1.267 0-2.297 0.362-3.091 1.084s-1.192 1.762-1.192 3.117v0.426h-1.628v2.285h1.628v8.267h2.733v-8.268h3.274v-2.285h-3.274v-0.367zM22.479 17.108c-0.129-0.684-0.426-1.222-0.892-1.617-0.465-0.393-1.046-0.59-1.743-0.59-0.685 0-1.269 0.197-1.754 0.59-0.485 0.394-0.812 0.933-0.979 1.617l5.368-0.001zM23.642 14.059c0.994 0.948 1.491 2.243 1.491 3.882 0 0.374-0.032 0.774-0.096 1.2h-7.927c0.387 1.498 1.414 2.246 3.081 2.246 0.569 0 1.166-0.099 1.793-0.301 0.627-0.198 1.166-0.454 1.618-0.764l1.085 1.917c-1.331 0.968-2.868 1.453-4.612 1.453-1.86 0-3.282-0.537-4.264-1.608s-1.473-2.372-1.473-3.91c0-1.6 0.511-2.924 1.531-3.968 1.021-1.046 2.344-1.569 3.973-1.569 1.537 0 2.803 0.474 3.798 1.423zM29.631 14.32v-1.413h-2.618v10.552h2.733v-5.016c0-1.096 0.236-1.903 0.707-2.419s1.096-0.774 1.871-0.774c0.387 0 0.806 0.070 1.258 0.212l0.233-2.613c-0.38-0.146-0.819-0.231-1.278-0.232h-0.001c-1.292 0-2.26 0.57-2.905 1.703v0.001zM9.379 9.151h2.829v14.308h-1.955l-7.423-8.772v8.771h-2.829v-14.308h1.821l7.558 8.849v-8.848zM3.165 31.898l2.233-5.443h-1.239l-1.43 3.763-1.437-3.763h-1.261l2.263 5.443h0.87zM6.484 27.434c0.004 0 0.009 0 0.015 0 0.173 0 0.33-0.071 0.442-0.184l0-0c0.114-0.113 0.184-0.269 0.184-0.442 0-0.005-0-0.010-0-0.015v0.001c0-0.005 0-0.010 0-0.016 0-0.171-0.071-0.326-0.184-0.437l-0-0c-0.113-0.112-0.269-0.181-0.44-0.181-0.006 0-0.012 0-0.017 0l0.001-0c-0.005-0-0.011-0-0.017-0-0.172 0-0.328 0.069-0.441 0.181l0-0c-0.114 0.111-0.184 0.265-0.184 0.436 0 0.006 0 0.012 0 0.018l-0-0.001c0 0.181 0.061 0.333 0.184 0.456s0.275 0.184 0.458 0.184h-0.001zM7 31.897v-4.013h-1.039v4.013h1.039zM9.738 31.992c0.506 0 0.922-0.196 1.245-0.589v0.493h1.018v-5.597h-1.039v2.048c-0.33-0.378-0.737-0.567-1.224-0.567-0.565 0-1.038 0.201-1.419 0.604s-0.572 0.904-0.572 1.502c0 0.604 0.189 1.106 0.568 1.506s0.852 0.6 1.423 0.6zM9.901 31.050c-0.33 0-0.6-0.111-0.812-0.332-0.206-0.226-0.308-0.503-0.308-0.833 0-0.324 0.104-0.597 0.314-0.82s0.477-0.335 0.806-0.335 0.598 0.111 0.804 0.335c0.206 0.224 0.309 0.497 0.309 0.821 0 0.33-0.103 0.605-0.309 0.829s-0.474 0.335-0.803 0.335v0.001zM14.953 31.985c0.664 0 1.248-0.184 1.754-0.552l-0.412-0.729c-0.173 0.118-0.378 0.214-0.616 0.291-0.203 0.070-0.437 0.111-0.681 0.114h-0.001c-0.634 0-1.024-0.284-1.172-0.854h3.014c0.025-0.162 0.037-0.315 0.037-0.457 0-0.623-0.189-1.116-0.567-1.476s-0.86-0.541-1.445-0.541c-0.618 0-1.123 0.198-1.511 0.596-0.388 0.397-0.582 0.901-0.582 1.509 0 0.584 0.187 1.080 0.561 1.488s0.915 0.611 1.622 0.611zM15.867 29.482h-2.042c0.064-0.261 0.188-0.466 0.372-0.616 0.174-0.141 0.397-0.226 0.641-0.226 0.009 0 0.018 0 0.027 0l-0.001-0c0.266 0 0.486 0.076 0.664 0.225s0.29 0.354 0.339 0.614v0.001zM19.563 32c0.629 0 1.146-0.204 1.548-0.611 0.403-0.408 0.605-0.908 0.605-1.503 0-0.589-0.202-1.088-0.605-1.498s-0.918-0.616-1.548-0.616-1.146 0.205-1.548 0.615c-0.403 0.41-0.605 0.909-0.605 1.498 0 0.595 0.202 1.095 0.605 1.503s0.919 0.611 1.548 0.611zM19.563 31.035c-0.314 0-0.58-0.11-0.796-0.331-0.196-0.207-0.317-0.487-0.317-0.795 0-0.008 0-0.016 0-0.024l-0 0.001c0-0.319 0.107-0.589 0.321-0.811 0.193-0.204 0.466-0.331 0.769-0.331 0.008 0 0.016 0 0.024 0l-0.001-0c0.314 0 0.579 0.11 0.792 0.332s0.321 0.491 0.321 0.81c0 0.319-0.107 0.591-0.321 0.814-0.193 0.206-0.466 0.335-0.77 0.335-0.008 0-0.016-0-0.023-0l0.001 0zM26.063 31.985c0.595 0 1.075-0.154 1.444-0.464s0.552-0.707 0.552-1.193c0-0.604-0.309-1.056-0.928-1.356-0.117-0.061-0.335-0.158-0.554-0.251l-0.105-0.040c-0.346-0.138-0.525-0.216-0.702-0.296l0.16 0.064c-0.294-0.147-0.442-0.326-0.442-0.538 0-0.157 0.063-0.284 0.188-0.38s0.296-0.143 0.512-0.143c0.202 0 0.413 0.045 0.634 0.132s0.408 0.214 0.561 0.376l0.582-0.796c-0.486-0.491-1.084-0.737-1.791-0.737-0.546 0-0.992 0.151-1.338 0.453-0.319 0.267-0.521 0.666-0.521 1.111 0 0.009 0 0.019 0 0.028l-0-0.001c0 0.575 0.288 1.026 0.863 1.355 0.147 0.083 0.362 0.18 0.644 0.291s0.461 0.182 0.535 0.216c0.328 0.158 0.493 0.346 0.493 0.568 0 0.002 0 0.004 0 0.006 0 0.172-0.087 0.323-0.219 0.413l-0.002 0.001c-0.147 0.108-0.334 0.162-0.56 0.162-0.28 0-0.547-0.065-0.8-0.195-0.261-0.138-0.477-0.328-0.641-0.558l-0.004-0.006-0.626 0.758c0.225 0.328 0.52 0.58 0.884 0.755 0.339 0.165 0.738 0.261 1.159 0.261 0.007 0 0.015-0 0.022-0h-0.001zM30.769 32c0.629 0 1.145-0.204 1.548-0.611s0.605-0.908 0.605-1.503c0-0.589-0.202-1.088-0.605-1.498s-0.918-0.616-1.548-0.616-1.145 0.205-1.548 0.615c-0.403 0.41-0.604 0.909-0.604 1.498 0 0.595 0.201 1.095 0.604 1.503s0.919 0.611 1.548 0.611zM30.769 31.035c-0.315 0-0.58-0.11-0.796-0.331-0.197-0.207-0.318-0.487-0.318-0.795 0-0.008 0-0.015 0-0.023l-0 0.001c0-0.319 0.107-0.589 0.321-0.811 0.193-0.204 0.467-0.331 0.769-0.331 0.008 0 0.016 0 0.024 0l-0.001-0c0.314 0 0.578 0.11 0.792 0.332s0.321 0.491 0.321 0.81c0 0.319-0.108 0.591-0.321 0.814-0.193 0.206-0.466 0.335-0.77 0.335-0.008 0-0.015-0-0.023-0l0.001 0zM34.723 31.897v-5.597h-1.040v5.597h1.040zM37.483 31.992c0.576 0 1.027-0.157 1.353-0.471s0.49-0.754 0.49-1.318v-2.319h-1.039v2.32c0 0.255-0.070 0.459-0.214 0.611-0.141 0.152-0.339 0.228-0.589 0.228-0.252 0-0.448-0.076-0.59-0.228s-0.214-0.356-0.214-0.611v-2.319h-1.039v2.32c0 0.564 0.165 1.004 0.494 1.318s0.779 0.471 1.348 0.471zM41.968 31.992c0.462 0 0.858-0.11 1.187-0.332l-0.309-0.817c-0.246 0.138-0.47 0.206-0.671 0.206-0.378 0-0.568-0.236-0.568-0.707v-1.591h1.327v-0.868h-1.327v-1.422h-1.032v1.421h-0.663v0.869h0.655v1.658c0 0.52 0.118 0.913 0.355 1.182 0.236 0.267 0.584 0.401 1.046 0.401v0.001zM44.219 27.434c0.004 0 0.010 0 0.015 0 0.173 0 0.33-0.071 0.443-0.184l0-0c0.114-0.113 0.184-0.269 0.184-0.442 0-0.005-0-0.010-0-0.015v0.001c0-0.005 0-0.010 0-0.016 0-0.171-0.071-0.326-0.184-0.437l-0-0c-0.113-0.112-0.269-0.181-0.441-0.181-0.006 0-0.012 0-0.017 0l0.001-0c-0.005-0-0.010-0-0.016-0-0.172 0-0.328 0.069-0.441 0.181l0-0c-0.114 0.111-0.184 0.265-0.184 0.436 0 0.006 0 0.012 0 0.018l-0-0.001c-0 0.004-0 0.010-0 0.015 0 0.173 0.071 0.329 0.184 0.442l0 0c0.122 0.123 0.275 0.184 0.458 0.184h-0.001zM44.735 31.897v-4.013h-1.039v4.013h1.039zM47.635 32c0.629 0 1.145-0.204 1.548-0.611s0.604-0.908 0.604-1.503c0-0.589-0.202-1.088-0.604-1.498s-0.919-0.616-1.548-0.616-1.145 0.205-1.548 0.615c-0.403 0.41-0.604 0.909-0.604 1.498 0 0.595 0.202 1.095 0.604 1.503s0.919 0.611 1.549 0.611zM47.635 31.035c-0.315 0-0.579-0.11-0.796-0.331-0.197-0.207-0.318-0.487-0.318-0.795 0-0.008 0-0.015 0-0.023l-0 0.001c0-0.319 0.108-0.589 0.32-0.811 0.193-0.204 0.467-0.331 0.769-0.331 0.008 0 0.017 0 0.025 0l-0.001-0c0.315 0 0.579 0.11 0.792 0.332 0.214 0.221 0.322 0.491 0.322 0.81s-0.108 0.591-0.321 0.814c-0.193 0.206-0.466 0.335-0.77 0.335-0.008 0-0.016-0-0.023-0l0.001 0zM51.589 31.897v-2.15c0-0.3 0.085-0.544 0.254-0.733s0.392-0.284 0.668-0.284c0.256 0 0.461 0.086 0.615 0.257s0.232 0.418 0.232 0.737v2.172h1.040v-2.452c0-0.535-0.152-0.947-0.457-1.237s-0.675-0.435-1.113-0.435c-0.285 0-0.539 0.062-0.762 0.188s-0.39 0.285-0.498 0.483v-0.56h-1.018v4.013h1.039zM56.664 32c0.481 0 0.868-0.122 1.16-0.365s0.438-0.55 0.438-0.924c0-0.442-0.225-0.781-0.678-1.017-0.112-0.058-0.435-0.188-0.965-0.39-0.236-0.079-0.354-0.201-0.354-0.368 0-0.093 0.042-0.173 0.125-0.239s0.195-0.099 0.332-0.099c0.335 0 0.641 0.132 0.922 0.397l0.516-0.67c-0.368-0.383-0.837-0.574-1.408-0.574-0.452 0-0.815 0.113-1.091 0.339s-0.412 0.515-0.412 0.868c0 0.472 0.23 0.817 0.692 1.039 0.090 0.045 0.261 0.114 0.516 0.21 0.256 0.096 0.416 0.158 0.48 0.188 0.191 0.088 0.287 0.205 0.287 0.346 0 0.113-0.053 0.206-0.159 0.28-0.106 0.073-0.237 0.11-0.394 0.11-0.202 0-0.402-0.051-0.601-0.151-0.202-0.103-0.372-0.24-0.51-0.406l-0.002-0.003-0.553 0.655c0.408 0.516 0.96 0.774 1.658 0.774z"></path>
</symbol>
</defs>
</svg>
